<svg xmlns="http://www.w3.org/2000/svg" version="1.1" viewBox="-5.0 -10.0 110.0 135.0">
 <path d="m97.168 73.586h-1.8867v-45.039c0-4.2969-3.4961-7.793-7.793-7.793l-27.105 0.003906c-8.7031-11.555-25.453-12.621-35.547-2.5273-0.80078 0.80078-1.5312 1.6445-2.1914 2.5273h-10.137c-4.2969 0-7.793 3.4961-7.793 7.793v45.039l-1.8828-0.003906c-0.51953 0-0.94531 0.42187-0.94531 0.94531v6.5664c0 4.1836 3.4023 7.5859 7.5859 7.5859h81.055c4.1836 0 7.5859-3.4023 7.5859-7.5859v-6.5664c0-0.52344-0.42188-0.94531-0.94531-0.94531zm-73.285-51.34c0.007813-0.011719 0.015626-0.019532 0.023438-0.03125 0.67188-0.92578 1.4219-1.8164 2.2578-2.6484 11.328-11.328 30.473-6.8281 35.781 8.0234 2 8.0352 1.4023 10.066-0.10547 14.926-5.4492 14.586-24.398 19.012-35.676 7.7344-7.5664-7.5703-8.4453-19.445-2.2812-28.004zm40.277 6.0586h23.574v39.621h-5.2031l-17.012-17.012c1.7852-1.9141 1.7461-4.9219-0.11719-6.7852l-1.5742-1.5742c1.6211-4.7305 1.6367-9.7578 0.33203-14.25zm-39.328 23.281c6.582 6.5859 16.074 8.4648 24.32 5.6445l1.5742 1.5742c1.8633 1.8672 4.875 1.9023 6.7852 0.11719l9.0078 9.0078-54.254-0.003907v-39.621h6.5977c-2.3281 7.9922-0.33984 16.973 5.9688 23.281zm34.02 6.0039 5.3359-5.3359 15.676 15.676h-10.676zm5.2188-12.129c1.168 1.168 1.168 3.0703 0 4.2422-1.0391 1.0391-6.918 6.918-7.7656 7.7656-1.168 1.168-3.0703 1.168-4.2422 0l-0.99219-0.99219c5.4062-2.3984 9.6836-6.7617 12.012-12.004zm-57.465-16.91c0-3.2578 2.6484-5.9062 5.9062-5.9062h8.8477c-0.73828 1.2109-1.3594 2.4766-1.8594 3.7734h-8.1797c-0.51953 0-0.94531 0.42188-0.94531 0.94531v41.508c0 0.51953 0.42188 0.94531 0.94531 0.94531h77.359c0.51953 0 0.94531-0.42188 0.94531-0.94531v-41.508c0-0.51953-0.42188-0.94531-0.94531-0.94531h-25.152c-0.50391-1.3086-1.1289-2.5703-1.8633-3.7734h25.828c3.2578 0 5.9062 2.6484 5.9062 5.9062v45.039l-31.133-0.003906c-0.38672 0-0.73438 0.23437-0.875 0.59375l-1.6484 4.125h-19.477l-1.6484-4.125c-0.14453-0.35938-0.48828-0.59375-0.875-0.59375h-31.137zm89.621 52.547c0 3.1406-2.5547 5.6992-5.6992 5.6992l-81.055-0.003906c-3.1406 0-5.6992-2.5547-5.6992-5.6992v-5.6211h33.324l1.6484 4.125c0.14453 0.35938 0.48828 0.59375 0.875 0.59375h20.754c0.38672 0 0.73438-0.23438 0.875-0.59375l1.6484-4.125h33.328z"/>
 <path d="m70.754 33.02h0.94531c0.51953 0 0.94531-0.42188 0.94531-0.94531 0-0.51953-0.42188-0.94531-0.94531-0.94531h-0.94531c-0.51953 0-0.94531 0.42188-0.94531 0.94531 0.003906 0.52344 0.42578 0.94531 0.94531 0.94531z"/>
 <path d="m76.414 33.02h7.5469c0.51953 0 0.94531-0.42188 0.94531-0.94531 0-0.51953-0.42188-0.94531-0.94531-0.94531h-7.5469c-0.51953 0-0.94531 0.42188-0.94531 0.94531 0.003906 0.52344 0.42578 0.94531 0.94531 0.94531z"/>
 <path d="m70.754 37.738h0.94531c0.51953 0 0.94531-0.42188 0.94531-0.94531 0-0.51953-0.42188-0.94531-0.94531-0.94531h-0.94531c-0.51953 0-0.94531 0.42188-0.94531 0.94531 0.003906 0.52344 0.42578 0.94531 0.94531 0.94531z"/>
 <path d="m76.414 37.738h7.5469c0.51953 0 0.94531-0.42188 0.94531-0.94531 0-0.51953-0.42188-0.94531-0.94531-0.94531h-7.5469c-0.51953 0-0.94531 0.42188-0.94531 0.94531 0.003906 0.52344 0.42578 0.94531 0.94531 0.94531z"/>
 <path d="m70.754 42.453h0.94531c0.51953 0 0.94531-0.42188 0.94531-0.94531 0-0.51953-0.42188-0.94531-0.94531-0.94531h-0.94531c-0.51953 0-0.94531 0.42188-0.94531 0.94531 0.003906 0.52344 0.42578 0.94531 0.94531 0.94531z"/>
 <path d="m76.414 42.453h7.5469c0.51953 0 0.94531-0.42188 0.94531-0.94531 0-0.51953-0.42188-0.94531-0.94531-0.94531h-7.5469c-0.51953 0-0.94531 0.42188-0.94531 0.94531 0.003906 0.52344 0.42578 0.94531 0.94531 0.94531z"/>
 <path d="m42.027 51.871c4.2344-0.12891 8.3672-1.832 11.488-4.957 6.6211-6.6211 6.6211-17.395 0-24.016-6.6211-6.6211-17.395-6.6211-24.016 0-10.832 10.836-2.7891 29.438 12.527 28.973zm-7.1211-3.3945c-1.3555-0.65625-2.6289-1.5273-3.7734-2.6133v-4.8281l3.7734-2.9023zm5.6602 1.4844c-1.2773-0.078126-2.5469-0.32031-3.7734-0.72266v-12.562l3.7734-2.9023zm5.6602-0.72266c-1.2266 0.40234-2.4961 0.64453-3.7734 0.72266v-16.34l3.7734 2.5156zm5.6602-3.375c-1.1445 1.0859-2.418 1.957-3.7734 2.6133v-12.484l3.7734-4.2578zm-22.641-2.1602c-4.2305-5.8945-3.7031-14.176 1.5898-19.469 5.8867-5.8867 15.461-5.8867 21.348 0 5.293 5.293 5.8242 13.574 1.5898 19.469v-14.457c0-0.85547-1.0742-1.2734-1.6484-0.625l-5.1133 5.7734c-5.2656-3.5117-5.0898-3.4766-5.5039-3.4766-0.18359 0-0.39062 0.066406-0.54687 0.17969-0.019532 0.011719-11.355 8.7148-11.461 8.832-0.42969 0.46094-0.1875 0.83203-0.25391 3.7734z"/>
<text x="0.0" y="117.5" font-size="5.0" font-weight="bold" font-family="Arbeit Regular, Helvetica, Arial-Unicode, Arial, Sans-serif" fill="#000000">Created by Icon Market</text><text x="0.0" y="122.5" font-size="5.0" font-weight="bold" font-family="Arbeit Regular, Helvetica, Arial-Unicode, Arial, Sans-serif" fill="#000000">from Noun Project</text></svg>