<svg xmlns="http://www.w3.org/2000/svg" version="1.1" viewBox="-5.0 -10.0 110.0 135.0">
 <path d="m33.898 18.758h32.199c0.21484-8.3242 7.0312-14.988 15.383-14.988 8.5 0 15.391 6.8906 15.391 15.391 0 3.957-1.4922 7.5586-3.9453 10.285v37.066c0 4.5469-3.293 8.7031-7.7852 8.7031h-22.855l1.5664 9.4141h14.223c2.1953 0 3.6445 2.2188 3.6445 4.4258v5.6602l-0.10547 1.5156h-61.027l-0.10547-1.5156v-5.6602c0-2.2109 1.4492-4.4258 3.6445-4.4258l14.219-0.003906 1.5664-9.4141-22.863 0.003906c-4.4922 0-7.7852-4.1602-7.7852-8.7031v-35.055c-7.4648-5.625-8.2539-16.555-1.6289-23.18 6.0117-6.0117 15.754-6.0117 21.766 0 2.6953 2.6953 4.3945 6.3906 4.5 10.48zm19.848 22.066c3.7852-2.4453 5.3672-4.8477 5.5117-6.6016 0.070313-0.85156-0.21484-1.5703-0.97266-1.9141-0.95312-0.43359-2.4492-0.23438-4.1875 0.89453-0.40234 0.26172-0.91016 0.24219-1.2852-0.011719-2.5547-1.6914-5.3477-1.4531-5.1406 1.0312 0.14844 1.7539 1.7266 4.1562 5.5117 6.6016 0.17578 0.11719 0.37891 0.11719 0.55859 0.003906zm7.8359-6.4102c0.32812-3.9258-3.6367-6.0547-8.1172-3.543-4.4766-2.5078-8.4453-0.38281-8.1172 3.543 0.19922 2.375 2.0898 5.4727 6.5781 8.3672 0.95312 0.61328 2.1172 0.61328 3.0742-0.003906l0.003906 0.003906c4.4883-2.8945 6.3789-5.9922 6.5781-8.3672zm-37.039-16.238-8.5391-5.5312c-0.56641-0.36719-1.2227 0.16797-1.2227 0.98438v11.062c0 0.81641 0.66016 1.3477 1.2227 0.98438l8.5391-5.5312c0.64062-0.41406 0.64062-1.5547 0-1.9688zm-7.2695-7.4844c-2.1602-1.3984-4.8242 0.30469-4.8242 2.9336v11.062c0 2.6289 2.6641 4.332 4.8242 2.9336l8.5391-5.5312c2.0586-1.332 2.0586-4.5352 0-5.8711zm-5.6758 22.219v33.602c0 3.2695 2.2578 6.3711 5.4492 6.3711h68.098c3.1914 0 5.4492-3.1016 5.4492-6.3711v-34.949c-0.77734 0.57031-1.6094 1.0703-2.4883 1.4922l0.003906 30.27c0 2.3281-1.8945 4.2227-4.2227 4.2227h-65.582c-2.3281 0-4.2227-1.8945-4.2227-4.2227v-29.422c-0.86328-0.26172-1.6953-0.59375-2.4844-0.99219zm4.8203 1.4961v28.918c0 1.0391 0.85156 1.8906 1.8906 1.8906h65.578c1.0391 0 1.8906-0.85156 1.8906-1.8906v-29.383c-7.0703 2.0508-14.492-1.1992-17.879-7.5508h-35.797c-2.9883 5.6094-9.1797 8.9023-15.684 8.0156zm16.691-10.352h33.781c-0.32031-0.94922-0.54688-1.9414-0.67578-2.9648h-32.43c-0.12891 1.0234-0.35547 2.0156-0.67578 2.9648zm-5.3633-14.129c-5.0977-5.0977-13.367-5.0977-18.465 0-5.0977 5.0977-5.0977 13.367 0 18.465s13.363 5.0977 18.465 0c5.0977-5.0977 5.1016-13.367 0-18.465zm48.066 6.0938-0.91016-0.003906v0.003906l-0.078125 0.058594h0.003906l0.019531 9.1953 0.95703 0.027343v-0.003906l0.078124-0.058594h-0.003906v-0.003906h0.003906v-9.1367zm-0.91016-2.3281v-0.003906c-1.3164 0-2.3984 1.0664-2.4023 2.3945h-0.003906v9.1445c0 0.65625 0.26953 1.2578 0.70312 1.6953 0.79297 0.80078 1.5977 0.70703 2.6055 0.71094v0.003907c0.94531 0 1.793-0.55859 2.1797-1.3945 0.58594 0.14844 1.293 0.32031 2.0391 0.47656 3.6016 0.76172 8.3984 1.25 9.1133-1.6406 0.089843-0.28516 0.18359-0.69922 0.097656-1.1758 0.6875-0.50391 0.86328-1.7734 0.50781-2.7305 0.73047-0.80859 0.85156-1.9805 0.29687-2.9375 0.32422-0.48047 0.43359-1.0078 0.43359-1.418 0-0.3125-0.24219-1.2266-0.96484-1.8203-0.41406-0.33984-0.97656-0.60547-1.7266-0.64844l-1.8242-0.015625c0.26953-1.2461 0.41016-2.7617 0.26172-4.0547-0.13672-1.2266-1.1406-2.4688-2.582-2.3477-1.2266 0.10156-2 0.92969-2.2461 2.3828-0.43359 2.5547-0.93359 4.0273-3.2305 4.9219v-0.003906c-0.011718 0.003906-0.046875 0.011719-0.10156 0.019531-0.12109-0.32031-0.30859-0.60547-0.54297-0.84766-0.80078-0.80078-1.6055-0.70703-2.6133-0.71094zm3.3047 3.8789v6.3203c0.59766 0.15234 1.3867 0.35156 2.3008 0.54297 2.6484 0.5625 6.1484 1.1133 6.3711 0.0625 0.007813-0.039063 0.019532-0.074219 0.027344-0.10938l0.011719-0.035157c-0.25781 0.15234-1.293-0.37891-1.0898-1.3633 0.10938-0.51953 0.54297-0.88281 1.0469-0.92188 0.57031-0.050781 0.30469-0.042968 0.64062 0.097656 0.14844 0.0625 0.054687-0.17187 0.039063-0.20312-1.2109-0.33594-1.1445-2.2109 0.32422-2.2852 0.14062-0.007812 0.24219-0.19141 0.10938-0.33203l0.011719-0.011719v-0.003906c-0.64062 0.035156-1.1875-0.45703-1.2227-1.0977-0.035156-0.62891 0.4375-1.168 1.0625-1.2227 0.25391-0.023437 0.29688-0.070312 0.29688-0.19922 0-0.019532-0.027344 0.042968-0.10938-0.023438-0.39062-0.32031-2.7188-0.082031-3.4062 0.007813-0.58984 0.078125-1.1406-0.30078-1.2812-0.86719-0.14453-0.55859 0.082031-1.1211 0.23438-1.6641 0.28125-1.0117 0.45312-2.6289 0.32031-3.7852-0.007812-0.070312-0.042969-0.15234-0.097656-0.21875-0.20312 0.39844-0.29688 2.7031-1.4805 4.5664-0.73828 1.1602-1.7734 1.9844-3.332 2.5781-0.19141 0.078125-0.46094 0.13281-0.77734 0.16797zm9.8008 1.7656h-0.003906zm-0.003906 0.003906c0.003906-0.003906 0.007813-0.003906 0.003906-0.003906zm0.003906-0.007813c0.007813 0 0.015626 0 0 0zm-4.1836-9.1133zm6.8906-0.29297c-5.0977-5.0977-13.367-5.0977-18.465 0-5.0977 5.0977-5.0977 13.367 0 18.465s13.367 5.0977 18.465 0c5.1016-5.0977 5.1016-13.367 0-18.465zm-16.777 30.316c0-0.64453-0.52344-1.168-1.168-1.168h-5.0195c-0.64453 0-1.168 0.52344-1.168 1.168v21.516c0 0.64453 0.52344 1.168 1.168 1.168h5.0195c0.64453 0 1.168-0.52344 1.168-1.168zm-2.3359 20.348v-19.18h-2.6836v19.18zm-39.23-25.871c-0.33594-1.0742-1.8711-1.0898-2.2188-0.007812l-1.5742 4.875-5.043-0.007813c-1.2422-0.046875-1.668 1.4531-0.76953 2.1055l4.1523 3.0039-1.5938 4.8711h0.003906c-0.34375 1.0664 0.87891 1.9609 1.7891 1.2969l4.1406-3.0234 4.0703 2.9688c0.98047 0.77344 2.207-0.19141 1.8633-1.2461l-1.5938-4.8711 4.1523-3.0039v-0.003907c0.90625-0.66016 0.44141-2.1055-0.68359-2.1055l-5.1289 0.011719zm-0.38281 6.3867-0.73047-2.25-0.72656 2.2539c-0.14844 0.46875-0.58984 0.80859-1.1055 0.80859l-2.3672-0.003907 1.918 1.3867c0.39844 0.28906 0.58594 0.80859 0.42578 1.3047l-0.73828 2.2539 1.8945-1.3828c0.39844-0.30078 0.96094-0.32422 1.3867-0.011718l1.9141 1.3984-0.72266-2.2148c-0.17578-0.47656-0.023438-1.0312 0.41016-1.3477l1.918-1.3867-2.3164 0.003907c-0.51172 0.019531-0.99609-0.30078-1.1602-0.8125zm29.098 5.3242c0-0.64453-0.52344-1.168-1.168-1.168h-5.0195c-0.64453 0-1.168 0.52344-1.168 1.168v15.328c0 0.64453 0.52344 1.168 1.168 1.168h5.0195c0.64453 0 1.168-0.52344 1.168-1.168zm-2.3359 14.16v-12.992h-2.6836v12.992zm-16.703-10.945c-0.64453 0-1.168 0.52344-1.168 1.168v10.945c0 0.64453 0.52344 1.168 1.168 1.168h5.0195c0.64453 0 1.168-0.52344 1.168-1.168l-0.003906-10.949c0-0.64453-0.52344-1.168-1.168-1.168zm3.8516 2.332h-2.6836v8.6133h2.6836zm-16.703 1.7344c-0.64453 0-1.168 0.52344-1.168 1.168v6.8789c0 0.64453 0.52344 1.168 1.168 1.168h5.0195c0.64453 0 1.168-0.52344 1.168-1.168v-6.8789c0-0.64453-0.52344-1.168-1.168-1.168zm3.8516 2.332h-2.6836v4.5469h2.6836zm45.023 30.918h-53.949c-0.80469 0-1.3086 1.1641-1.3086 2.0938v4.8438h56.57v-4.8438c-0.003906-0.92969-0.50781-2.0938-1.3125-2.0938zm-18.148-11.746h-17.652l-1.5664 9.4102h20.785z" fill-rule="evenodd"/>
<text x="0.0" y="117.5" font-size="5.0" font-weight="bold" font-family="Arbeit Regular, Helvetica, Arial-Unicode, Arial, Sans-serif" fill="#000000">Created by Nunung Anggraini NPH</text><text x="0.0" y="122.5" font-size="5.0" font-weight="bold" font-family="Arbeit Regular, Helvetica, Arial-Unicode, Arial, Sans-serif" fill="#000000">from Noun Project</text></svg>