<svg xmlns="http://www.w3.org/2000/svg" data-name="Layer 1" viewBox="0 0 95 118.75" x="0px" y="0px"><defs><style>.cls-1{fill-rule:evenodd;}</style></defs><title>a</title><path class="cls-1" d="M74.869,51.032a17.631,17.631,0,1,1-10.755,31.6H5.557A3.063,3.063,0,0,1,2.5,79.578V65.171a3.063,3.063,0,0,1,3.057-3.057H16.945V55.931H5.557A3.064,3.064,0,0,1,2.5,52.874V38.467A3.063,3.063,0,0,1,5.557,35.41H16.945V29.226H5.557A3.063,3.063,0,0,1,2.5,26.17V11.762A3.063,3.063,0,0,1,5.557,8.706H68.548a3.063,3.063,0,0,1,3.057,3.056V26.17a3.063,3.063,0,0,1-3.057,3.056H57.16V35.41H68.548a3.063,3.063,0,0,1,3.057,3.057V51.334a17.732,17.732,0,0,1,3.264-.3ZM40.858,70.648a1.055,1.055,0,1,1,0-2.109h16.38a17.681,17.681,0,0,1,.564-4.315H5.557a.954.954,0,0,0-.948.947V79.578a.954.954,0,0,0,.948.947H61.825a17.622,17.622,0,0,1-2.894-4.315H40.858a1.055,1.055,0,1,1,0-2.109H58.093a17.546,17.546,0,0,1-.745-3.453Zm-16.389-.4a2.124,2.124,0,1,0,1.5.622,2.115,2.115,0,0,0-1.5-.622Zm-2.994-.87a4.235,4.235,0,1,0,2.994-1.24,4.223,4.223,0,0,0-2.994,1.24Zm-7.868.87a2.125,2.125,0,1,0,1.5.622,2.118,2.118,0,0,0-1.5-.622Zm-2.994-.87a4.235,4.235,0,1,0,2.994-1.24,4.223,4.223,0,0,0-2.994,1.24ZM63.678,41.834h0a1.055,1.055,0,0,0,0,2.11h0a1.055,1.055,0,0,0,0-2.11Zm-22.82,2.11H60.176a1.055,1.055,0,0,0,0-2.11H40.858a1.055,1.055,0,0,0,0,2.11ZM63.678,47.4h0a1.055,1.055,0,1,0,0,2.109h0a1.055,1.055,0,0,0,0-2.109Zm-22.82,2.109H60.176a1.055,1.055,0,0,0,0-2.109H40.858a1.055,1.055,0,1,0,0,2.109Zm-16.389-5.96a2.124,2.124,0,1,0,1.5.622,2.115,2.115,0,0,0-1.5-.622Zm-2.994-.87a4.235,4.235,0,1,0,2.994-1.24,4.223,4.223,0,0,0-2.994,1.24Zm-7.868.87a2.124,2.124,0,1,0,1.5.622,2.118,2.118,0,0,0-1.5-.622Zm-2.994-.87a4.235,4.235,0,1,0,2.994-1.24,4.223,4.223,0,0,0-2.994,1.24ZM63.678,15.13h0a1.055,1.055,0,1,0,0,2.109h0a1.055,1.055,0,0,0,0-2.109Zm-22.82,2.109H60.176a1.055,1.055,0,0,0,0-2.109H40.858a1.055,1.055,0,1,0,0,2.109Zm22.82,3.454h0a1.055,1.055,0,1,0,0,2.109h0a1.055,1.055,0,0,0,0-2.109ZM40.858,22.8H60.176a1.055,1.055,0,0,0,0-2.109H40.858a1.055,1.055,0,1,0,0,2.109ZM24.469,16.841a2.124,2.124,0,1,0,1.5.622,2.119,2.119,0,0,0-1.5-.622Zm-2.994-.869a4.235,4.235,0,1,0,2.994-1.24,4.222,4.222,0,0,0-2.994,1.24Zm-7.868.869a2.124,2.124,0,1,0,1.5.622,2.122,2.122,0,0,0-1.5-.622Zm-2.994-.869a4.235,4.235,0,1,0,2.994-1.24,4.222,4.222,0,0,0-2.994,1.24ZM55.05,29.226H19.055V35.41H55.05V29.226Zm2.11,26.705v6.183H58.5A17.64,17.64,0,0,1,62.4,56.2c.09-.089.18-.178.272-.265Zm-2.11,6.183V55.931H19.055v6.183Zm10.3-8.293A17.528,17.528,0,0,1,69.5,51.866v-13.4a.954.954,0,0,0-.948-.948H5.557a.954.954,0,0,0-.948.948V52.874a.954.954,0,0,0,.948.947Zm3.2-43.006H5.557a.954.954,0,0,0-.948.947V26.17a.954.954,0,0,0,.948.947H68.548a.954.954,0,0,0,.948-.947V11.762a.954.954,0,0,0-.948-.947ZM66.757,69.492l4.856,4.855a1.054,1.054,0,0,0,1.491,0l9.876-9.876a1.055,1.055,0,0,0-1.491-1.492L72.358,72.11,68.249,68a1.055,1.055,0,1,0-1.492,1.491Zm19.087-11.8a15.52,15.52,0,1,0,4.547,10.975A15.47,15.47,0,0,0,85.844,57.688Z"/><text x="0" y="110" fill="#000000" font-size="5px" font-weight="bold" font-family="'Helvetica Neue', Helvetica, Arial-Unicode, Arial, Sans-serif">Created by Siti Solekah</text><text x="0" y="115" fill="#000000" font-size="5px" font-weight="bold" font-family="'Helvetica Neue', Helvetica, Arial-Unicode, Arial, Sans-serif">from the Noun Project</text></svg>